
<svg width="90" height="90"  xmlns="http://www.w3.org/2000/svg" >
    <g fill="currentColor">
        <path id="svg_2" d="m23.55667,26.97987c0,0 -1.01541,0.74046 -1.59871,1.58458c-0.5833,0.84505 -5.88936,11.69971 -5.88936,11.69971l-8.13578,25.39081c0,0 -0.44732,2.87622 1.39786,2.91325s56.41768,0.15272 56.41768,0.15272s2.62797,-0.80988 2.68389,-3.35521s0.03088,-40.26247 0.03088,-40.26247s0.08096,-2.77672 -3.83305,-2.89242s-34.31135,-0.17354 -35.7195,0.92558s-5.35392,3.84345 -5.35392,3.84345" fill="#7EC4E8" clip-path="url(#SVGID_2_)"/>
        <polygon id="svg_3" points="68.12765502929688,47.60027280217082 60.91468811035156,39.18124412028783 63.263084411621094,35.18970741619705 64.3254623413086,31.44714860328827 62.815773010253906,27.79992206907218 59.07532501220703,26.570299225310464 55.82646942138672,27.501426273542165 51.91245651245117,31.44714860328827 50.90599822998047,32.800803357412406 45.314552307128906,32.316262422194995 32.50925064086914,36.54105246147219 20.80299949645996,26.80169170930776 23.242210388183594,23.620030516445013 20.80299949645996,22.405214523746736 18.307872772216797,23.15724373121293 17.1336669921875,24.603452207908504 14.278453826904297,21.884579617515328 11.598139762878418,22.57875888674471 9.752961158752441,24.661302146145317 8.019613265991211,27.20663219077801 7.4045538902282715,29.636265993412053 8.187356948852539,31.44714860328827 21.34067153930664,44.03726977387487 17.413240432739258,47.59934237657626 15.373034477233887,51.27155410903379 15.679892539978027,55.031705598077224 17.954940795898438,57.57702655652247 23.731571197509766,58.73399624545891 29.826250076293945,58.73399624545891 38.10158920288086,57.27529971273634 35.5854377746582,59.89096593439535 29.43484878540039,62.84122919154834 30.553136825561523,65.09731499670943 34.019832611083984,68.56823133246871 66.17064666748047,68.56823133246871 68.46314239501953,66.65922334987863 " fill="#DBA783" clip-path="url(#SVGID_2_)"/>
        <path id="svg_4" d="m15.97244,38.28945c0,0 -0.20532,-1.40085 0.38872,-1.98952c0.23305,-0.23047 1.22833,0.58218 1.44483,0.27027c0.22768,-0.32905 -0.33012,-1.16854 0,-1.46612c0.3158,-0.28461 1.34328,0.48269 1.68638,0.15458c0.33727,-0.32257 0.05099,-1.39484 0.44731,-1.69658c0.25184,-0.19252 1.45825,0.42392 1.71501,0.2314c0.27644,-0.20872 0.16058,-1.31802 0.44731,-1.50406c0.32251,-0.21149 1.28514,0.34524 1.60318,0.15364c0.26034,-0.15642 0.03936,-1.26017 0.29791,-1.38836c0.68484,-0.34061 2.02231,0.12819 2.60964,0c1.19254,0.77193 3.89031,3.63288 3.89031,3.63288l-11.74159,6.90294l-2.78901,-3.30106z" fill="#C68051" clip-path="url(#SVGID_2_)"/>
        <path id="svg_5" d="m18.1616,41.77563c0,0 -0.23439,-1.48878 0.44463,-2.11308c0.2666,-0.24574 1.40412,0.61921 1.65149,0.28646c0.26034,-0.34893 -0.37753,-1.2412 0,-1.55727c0.36188,-0.30174 1.53608,0.5123 1.92838,0.16429c0.38514,-0.34246 0.05815,-1.48231 0.51218,-1.80302c0.28807,-0.20409 1.6667,0.45121 1.95969,0.24573c0.31714,-0.22167 0.18429,-1.399 0.51217,-1.598c0.36904,-0.22491 1.46943,0.36699 1.8331,0.16383c0.29791,-0.16615 0.04473,-1.33885 0.34086,-1.47538c0.7837,-0.36236 2.31262,0.13653 2.98359,0c1.36387,0.8196 3.31551,2.13391 3.31551,2.13391l-12.94845,7.61887l-2.53315,-2.06635z" fill="#8B4E24" clip-path="url(#SVGID_2_)"/>
        <path id="svg_6" d="m31.0255,65.07697c0,0 9.98274,-2.06172 15.32055,-3.818c0.58509,-0.19252 0.47908,-2.40511 0.95055,-2.53284c1.13438,-0.30637 2.20168,1.41984 2.2831,1.38836c1.18136,-0.45631 0.63787,-2.39445 0.73628,-2.44212c0.78773,-0.38134 2.09568,0.7747 2.85165,0.3471c0.42807,-0.24205 0.42226,-1.77248 0.83871,-2.0247c0.32072,-0.19438 1.61972,1.01257 1.92926,0.80988c0.32296,-0.2115 -0.28449,-1.6614 0.02774,-1.88031c0.81859,-0.57479 1.39786,0.66086 1.92927,0c0.49519,-0.61736 -0.72017,-1.64521 -0.11183,-2.22739c0.23798,-0.2277 1.43902,0.68769 1.64926,0.37624c0.15924,-0.23602 -0.6759,-2.00849 -0.50322,-2.25608c0.14894,-0.21334 1.79507,0.38226 1.92927,0.14484c0.15566,-0.27582 -0.80025,-2.32828 -0.64324,-2.60317c0.12032,-0.21057 1.76735,0.24389 1.87336,0.02915c0.13554,-0.27581 -1.36477,-2.19916 -1.23012,-2.45879c0.12838,-0.24759 1.73425,0.12033 1.84518,-0.11569c0.07872,-0.168 -1.07132,-1.10885 -0.99617,-1.26619c0.04383,-0.09118 0.08633,-0.18003 0.12882,-0.26656c0.03668,-0.07498 1.11158,0.21704 1.14648,0.14485c0.10197,-0.21242 -0.36323,-0.52897 -0.27376,-0.71315c0.13732,-0.28646 1.42693,0.60301 1.53159,0.39522c0.21204,-0.42207 -0.81456,-1.80857 -0.75282,-1.82245c1.19254,0.77099 3.17593,3.5866 3.17593,3.5866l1.47301,2.15843l0,17.89598l-1.96416,2.64299l-32.15036,0l-2.99433,-3.4922z" fill="#C68051" clip-path="url(#SVGID_2_)"/>
        <path id="svg_7" d="m31.69648,69.23002c0,0 9.31177,-1.47167 14.64958,-3.22794c0.58509,-0.19254 0.70721,-1.69566 1.17823,-1.82292c1.1344,-0.30637 2.55552,1.12874 2.72684,0.08838c0.08097,-0.48823 -0.11094,-1.37216 0.56183,-1.37216c1.09816,0 3.42107,1.28517 3.48235,1.25554c0.78727,-0.38132 -0.35472,-3.27467 0.40079,-3.70229c0.42808,-0.24202 1.57366,1.60171 1.98922,1.34949c0.32072,-0.19437 -0.05278,-2.33198 0.25675,-2.5356c0.32296,-0.2115 1.82103,1.07042 2.13326,0.85154c0.81858,-0.57387 -1.21088,-2.04183 -0.67947,-2.70269c0.49518,-0.61642 2.13146,0.25778 2.73981,-0.32441c0.23798,-0.22769 -0.82575,-2.37178 -0.61506,-2.6837c0.15834,-0.23602 2.5667,0.56598 2.73981,0.31839c0.14851,-0.21426 -1.28067,-1.23749 -1.14648,-1.47536c0.15612,-0.27582 1.21312,-0.21705 1.37014,-0.49194c0.12032,-0.21057 -1.22431,-1.72297 -1.11829,-1.93816c0.13554,-0.27582 1.73872,0.89503 1.87291,0.63634c0.12837,-0.24759 -1.39652,-1.78867 -1.28603,-2.0247c0.07917,-0.16798 2.13414,1.19862 2.20885,1.04127c0.04339,-0.09024 -2.05587,-2.63234 -2.01293,-2.71888c0.03579,-0.07497 2.03395,1.60541 2.06884,1.53321c0.10198,-0.21241 -0.78861,-1.31894 -0.69916,-1.50406c0.12435,-0.25962 1.29678,0.56785 1.39563,0.1953c0.05322,-0.20316 -0.90493,-1.0149 -0.9483,-1.31339c-0.0443,-0.30636 1.43497,0.35682 1.47255,0.11569c0.08321,-0.53498 -1.17107,-1.82476 -1.13707,-1.83217c1.19299,0.771 2.87982,3.61576 2.87982,3.61576l0.28226,1.96685l-0.5341,15.86016l-2.18066,2.33292l-27.84763,0l-6.20426,0.50954z" fill="#8F4F24" clip-path="url(#SVGID_2_)"/>
        <polygon id="svg_8" points="15.373482704162598,51.27155410903379 19.947731018066406,51.27155410903379 19.463289260864258,54.240807497950755 16.9471378326416,56.40571522931987 15.549278259277344,54.472192712998094 " fill="#161108" clip-path="url(#SVGID_2_)"/>
        <polygon id="svg_9" points="20.666566848754883,58.22447192923755 25.24126434326172,58.22447192923755 24.756372451782227,61.193714414729584 22.24022102355957,63.359556206168236 20.842363357543945,61.42510689872688 " fill="#DBDBDB" clip-path="url(#SVGID_2_)"/>
        <path id="svg_10" d="m65.63879,69.55119l-31.9379,0l-5.27027,-5.81447c-0.24379,-0.26932 -0.33996,-0.64372 -0.25721,-1.00145c0.08231,-0.35681 0.33012,-0.64606 0.66381,-0.77287c2.53181,-0.95981 5.21213,-2.22461 7.05551,-3.45378c-6.19085,1.27638 -17.29769,2.31672 -20.60693,-2.53006c-0.88255,-1.29256 -1.18717,-2.75219 -0.90492,-4.3377c0.82395,-4.63528 6.55138,-9.22613 9.89238,-11.5507c4.33673,-3.01737 17.39297,-10.27249 26.58397,-8.43245l0.00268,-0.00369c2.50586,-3.20341 6.29373,-8.04463 11.30188,-5.08511c1.65775,0.97972 2.6481,2.28524 2.94379,3.87955c0.43299,2.33661 -0.64325,5.16656 -3.29047,8.64486c2.47099,3.22146 6.99378,8.19365 7.03986,8.24503l0.24335,0.26656l0,18.36617c-0.00046,1.9738 -1.55219,3.58012 -3.45953,3.58012m-31.1627,-1.85115l31.1627,0c0.92146,0 1.66982,-0.77563 1.66982,-1.72897l0,-17.63218c-1.00825,-1.11533 -4.831,-5.37527 -7.02554,-8.26492c-0.44196,-0.58126 -0.43792,-1.39391 0.01029,-1.97518c2.35735,-3.05948 3.38528,-5.51735 3.05427,-7.30139c-0.19593,-1.0547 -0.87361,-1.91178 -2.0742,-2.62123c-3.41525,-2.01822 -5.99939,0.77748 -9.02369,4.64314l-0.70452,0.89734l-0.54707,-0.13467c-8.54552,-2.09874 -21.76817,5.28967 -25.72691,8.04371c-2.50139,1.74099 -8.39969,6.2342 -9.1315,10.3493c-0.19413,1.09264 0.00447,2.05293 0.60701,2.935c3.0158,4.41822 16.70813,2.70453 21.88626,1.00147l1.94403,-0.64004l-0.86243,1.9127c-1.14111,2.53282 -6.23782,4.90461 -9.23036,6.11203l3.99185,4.40387z" clip-path="url(#SVGID_2_)"/>
        <path id="svg_11" d="m58.4039,37.85027c-0.1503,0 -0.30149,-0.0523 -0.42718,-0.1592l-3.68141,-3.14834l0.27868,-0.50722c0.29165,-0.52989 1.83042,-3.18536 3.51367,-3.44128c0.37127,-0.05322 0.70765,0.20687 0.76177,0.58681c0.05323,0.37948 -0.19995,0.73213 -0.56675,0.7872c-0.66113,0.10043 -1.61704,1.25555 -2.25,2.25887l2.7993,2.39353c0.28584,0.24389 0.32609,0.68169 0.08992,0.97694c-0.13331,0.16568 -0.32475,0.25269 -0.518,0.25269" clip-path="url(#SVGID_2_)"/>
        <path id="svg_12" d="m17.46066,57.2753l-0.9331,-1.57903c1.76287,-1.11625 2.2831,-2.66935 2.43116,-3.62085l-3.85183,0l0,-1.85115l5.61292,0l0.07291,0.84228c0.01342,0.15919 0.29747,3.91193 -3.33205,6.20875" clip-path="url(#SVGID_2_)"/>
        <path id="svg_13" d="m23.40861,63.59882c-0.22366,0 -0.45,-0.01989 -0.67545,-0.06156c-0.27599,-0.05044 -0.61998,-0.11015 -0.99751,-0.17075c-0.71928,-0.11385 -1.32718,-0.45216 -1.71008,-0.71317c-0.59583,-0.40772 -0.95323,-1.09635 -0.95323,-1.84283l0,-2.82624l2.23658,0l0,2.77211c0.19637,0.12911 0.4746,0.27674 0.76714,0.32348c0.39856,0.06341 0.75865,0.12634 1.04851,0.18003c0.40034,0.07126 0.78907,-0.00648 1.0664,-0.21891c0.08186,-0.0634 0.18832,-0.16197 0.23127,-0.27212c0.40079,-1.05283 0.91118,-2.29403 0.9331,-2.34725l2.05765,0.90659c-0.00537,0.01342 -0.52023,1.26618 -0.90984,2.28942c-0.18966,0.49704 -0.51933,0.92834 -0.97872,1.28192c-0.59762,0.45722 -1.34285,0.69926 -2.11581,0.69926" clip-path="url(#SVGID_2_)"/>
        <path id="svg_14" d="m36.14637,48.02973c-0.05144,0 -0.10378,-0.00648 -0.157,-0.01897l-7.07878,-1.75165l8.49094,-4.4173c0.33101,-0.17262 0.73405,-0.03425 0.9009,0.30822c0.1664,0.34246 0.0331,0.75943 -0.29836,0.93205l-5.20944,2.71054l3.5074,0.86773c0.36009,0.08839 0.58241,0.4637 0.49652,0.83626c-0.07381,0.31886 -0.34846,0.53313 -0.65219,0.53313" clip-path="url(#SVGID_2_)"/>
        <path id="svg_15" d="m83.18965,32.31626l-14.9135,0c-0.53454,0 -0.96709,-0.62106 -0.96709,-1.38836c0,-0.76638 0.43255,-1.38836 0.96709,-1.38836l14.9135,0c0.53411,0 0.96711,0.62198 0.96711,1.38836c0,0.76776 -0.433,1.38836 -0.96711,1.38836" clip-path="url(#SVGID_2_)"/>
        <path id="svg_16" d="m86.05381,46.615l-11.81046,0c-0.42361,0 -0.76625,-0.62199 -0.76625,-1.38837c0,-0.7673 0.34264,-1.38836 0.76625,-1.38836l11.81046,0c0.42227,0 0.76581,0.62106 0.76581,1.38836c0,0.76638 -0.34309,1.38837 -0.76581,1.38837" clip-path="url(#SVGID_2_)"/>
        <path id="svg_17" d="m80.09916,61.50286l-11.70536,0c-0.41914,0 -0.75864,-0.62106 -0.75864,-1.38837c0,-0.76637 0.33996,-1.38836 0.75864,-1.38836l11.70536,0c0.41913,0 0.75909,0.62199 0.75909,1.38836c0,0.76731 -0.3404,1.38837 -0.75909,1.38837" clip-path="url(#SVGID_2_)"/>
        <path id="svg_18" d="m65.98634,21.18901l-29.27143,0l-0.00089,0l-0.03311,0c-4.33672,0 -8.06197,0.6877 -11.10863,2.01544c0.05279,0.05137 0.10736,0.10227 0.15835,0.15364c0.23171,0.23139 0.3252,0.57293 0.24513,0.89595c-0.08007,0.32164 -0.31491,0.57941 -0.58062,0.73306c-0.50591,0.29109 -1.35179,0.94084 -1.90825,1.76784l0.06978,0.22399c3.77266,-2.78413 8.93513,-3.47645 13.12514,-3.47645l0.03086,0l0.0009,0l29.27234,0c0.60566,0 1.09905,0.50999 1.09905,1.13614l0,41.33197c0,0.82607 -0.64906,1.49758 -1.44662,1.49758l-55.93681,0c-0.31625,0 -0.60567,-0.15086 -0.7922,-0.41464c-0.18698,-0.26286 -0.23931,-0.59193 -0.14582,-0.90292c1.507,-4.98652 5.4237,-17.89689 8.48334,-27.08368c-0.61417,-0.48547 -1.24846,-0.98434 -1.87336,-1.48601c-2.95228,8.79388 -6.78578,21.39835 -8.74457,27.87922c-0.30865,1.02138 -0.13464,2.10151 0.47773,2.96369c0.61327,0.8631 1.5589,1.35875 2.59488,1.35875l55.93727,0c2.03082,0 3.68318,-1.71001 3.68318,-3.81152l0,-41.33197c0,-1.90298 -1.4967,-3.45008 -3.33563,-3.45008" clip-path="url(#SVGID_2_)"/>
        <path id="svg_19" d="m10.44943,31.44715l-0.02774,0c-0.37082,-0.00093 -0.67008,-0.31284 -0.66874,-0.69696c0.00134,-0.38226 0.30149,-0.6914 0.67097,-0.6914c0.00895,0 0.01655,0 0.0255,0c1.21178,0 2.12385,-0.36514 2.71297,-1.0857c1.18852,-1.45454 0.80785,-3.98321 0.80338,-4.00774c-0.06307,-0.37856 0.18206,-0.73768 0.54707,-0.80247c0.36456,-0.0634 0.71302,0.18789 0.7752,0.56691c0.02147,0.12819 0.50636,3.17333 -1.10084,5.13925c-0.85616,1.04729 -2.11357,1.5781 -3.73777,1.5781" clip-path="url(#SVGID_2_)"/>
        <path id="svg_20" d="m15.92636,29.94726c-0.15209,0 -0.2997,-0.0796 -0.38335,-0.22307c-1.00333,-1.72017 -0.12301,-3.36585 0.48221,-3.99709c0.1749,-0.18094 0.4576,-0.18188 0.63295,-0.00185c0.17446,0.18002 0.1758,0.47204 0.00268,0.65346c-0.05591,0.0597 -1.23951,1.34578 -0.35204,2.86697c0.12793,0.21889 0.05949,0.50351 -0.15164,0.63448c-0.07291,0.04628 -0.15209,0.0671 -0.23081,0.0671" clip-path="url(#SVGID_2_)"/>
        <path id="svg_21" d="m32.53832,35.23321l-10.77136,-8.25334l-0.12927,-0.1393c0.55691,-0.82793 1.3576,-1.76785 1.91585,-1.92427c0.30999,-0.08746 0.55109,-0.34061 0.63206,-0.66271c0.08006,-0.32257 -0.01342,-0.66549 -0.24468,-0.89688c-0.051,-0.05044 -0.10601,-0.10135 -0.15835,-0.15272c-0.88077,-0.85523 -1.96461,-1.66604 -3.38618,-1.6142c-1.06685,0.0435 -2.10641,0.57293 -3.15939,1.61328c-1.13842,-1.03155 -1.80134,-1.59801 -1.83489,-1.62531c-0.06486,-0.05507 -0.13643,-0.10135 -0.21426,-0.1356c-0.15298,-0.06757 -3.78742,-1.61004 -6.98931,3.79346c-2.29249,3.86937 -2.12207,5.0814 -0.49294,6.55492c0.21918,0.199 0.44642,0.40401 0.65576,0.65253c0.61819,0.73583 11.33901,11.49285 11.72862,11.79042c0.15969,0.12125 0.34488,0.18003 0.52962,0.18003c0.2751,0 0.54617,-0.13005 0.72107,-0.37671c0.29344,-0.41141 0.20845,-0.99082 -0.18966,-1.29349c-1.01183,-0.771 -10.96326,-10.94769 -11.4392,-11.5146c-0.28941,-0.34431 -0.57569,-0.60301 -0.82843,-0.83163c-0.75731,-0.68446 -1.07043,-0.96815 0.84095,-4.19424c2.11491,-3.5704 4.1994,-3.22239 4.66282,-3.09142c0.29657,0.25685 1.11918,0.97417 2.3077,2.06635c0.17803,0.1629 0.41063,0.25129 0.64861,0.23139c0.23708,-0.01527 0.45895,-0.12727 0.61595,-0.31192c0.91253,-1.0695 1.75616,-1.62809 2.50765,-1.65863c0.46834,-0.02175 0.8991,0.16614 1.30884,0.45029c-0.31804,0.27304 -0.60835,0.58681 -0.87048,0.90197c-0.60254,0.7238 -1.03643,1.45269 -1.17286,1.69287c-0.20218,0.35681 -0.15119,0.80802 0.1248,1.10745l0.52828,0.56877l10.85859,8.35145c0.3413,0.36977 0.9076,0.38319 1.26501,0.02963s0.37037,-0.93808 0.02907,-1.30785" clip-path="url(#SVGID_2_)"/>
    </g>
</svg>